<svg width="55" height="51" viewBox="0 0 55 51" fill="none" xmlns="http://www.w3.org/2000/svg">
<path d="M0.875977 0.5H44.9996C50.2463 0.5 54.4996 4.75329 54.4996 10V50.2H10.376C5.12927 50.2 0.875977 45.9467 0.875977 40.7V0.5Z" fill="#353838" stroke="#353838"/>
<path d="M25.5724 39V19.9091H30.8671V39H25.5724ZM28.2322 17.4482C27.445 17.4482 26.7697 17.1871 26.2062 16.6651C25.6511 16.1348 25.3735 15.5009 25.3735 14.7635C25.3735 14.0343 25.6511 13.4087 26.2062 12.8867C26.7697 12.3564 27.445 12.0913 28.2322 12.0913C29.0193 12.0913 29.6905 12.3564 30.2457 12.8867C30.8091 13.4087 31.0908 14.0343 31.0908 14.7635C31.0908 15.5009 30.8091 16.1348 30.2457 16.6651C29.6905 17.1871 29.0193 17.4482 28.2322 17.4482Z" fill="white"/>
</svg>
